<svg width="115" height="156" viewBox="0 0 115 156" fill="none" xmlns="http://www.w3.org/2000/svg">
<g filter="url(#filter0_d_79_35)">
<path fill-rule="evenodd" clip-rule="evenodd" d="M66.0718 144.091C67.4566 144.086 68.8388 144.081 70.2167 144.081C76.7518 144.081 83.2629 143.933 89.792 143.785L89.8059 143.785C96.3247 143.636 102.862 143.488 109.424 143.488C110.253 143.488 110.924 144.159 110.924 144.988C110.924 145.816 110.253 146.488 109.424 146.488C102.897 146.488 96.3892 146.636 89.8602 146.784L89.8573 146.784C83.3347 146.933 76.7906 147.081 70.2167 147.081C68.8369 147.081 67.4446 147.087 66.0427 147.092C52.9473 147.144 39.0084 147.198 26.4297 142.844C17.5514 139.771 12.4227 133.486 9.37594 126.102C6.35457 118.779 5.34763 110.303 4.68472 102.679C4.02546 95.0968 3.94975 85.9226 5.12518 78.2819C5.4216 76.355 5.50014 74.2558 5.51894 72.0225C5.52517 71.2836 5.52472 70.5229 5.52426 69.7508C5.52337 68.2324 5.52245 66.6701 5.5722 65.1431C5.72289 60.5194 6.33775 55.6947 9.05973 51.6833C9.63916 50.8294 10.2363 50.0268 10.8532 49.2758C10.2752 46.8393 9.84808 44.3215 9.60319 41.7986C8.92852 34.8482 9.62063 27.684 12.5283 22.0301C22.0152 3.58327 39.7777 2.59705 57.4562 1.61549L57.7679 1.59819C59.6623 1.49294 61.6134 1.34462 63.6016 1.19348C70.4677 0.671494 77.7763 0.115891 84.7231 1.18465C87.3999 1.59648 92.8702 2.0043 97.0658 2.31306L97.3257 2.3322C99.2797 2.47595 100.935 2.59776 101.792 2.68512C102.01 2.70734 102.217 2.73129 102.373 2.75784L102.379 2.75885C102.425 2.76659 102.606 2.79692 102.787 2.87083C102.842 2.89299 102.974 2.94922 103.119 3.05556C103.214 3.1255 103.633 3.44182 103.721 4.05905C103.827 4.80646 103.376 5.27956 103.178 5.44031C102.982 5.59962 102.793 5.66954 102.73 5.69189C102.512 5.77017 102.293 5.78659 102.253 5.78963L102.248 5.79001C102.158 5.79767 102.058 5.80249 101.956 5.80589C101.748 5.81282 101.468 5.81595 101.114 5.81595C100.806 5.81595 100.52 5.72301 100.281 5.56361C99.4273 5.49495 98.3127 5.41292 97.0462 5.31973L96.8456 5.30498C92.7153 5.00101 87.0924 4.58446 84.2669 4.14977C77.6951 3.13869 70.8605 3.65604 64.0541 4.17125C62.009 4.32607 59.9664 4.48068 57.9343 4.59358C39.8256 5.59964 23.8445 6.58576 15.1962 23.4021C12.6477 28.3576 11.9456 34.879 12.5891 41.5087C12.756 43.2277 13.0123 44.9422 13.3458 46.6245C14.9609 45.1382 16.7048 43.9524 18.6048 43.0706C22.3146 41.3488 26.4917 40.8454 31.2409 41.3731C35.6181 41.8594 39.7918 45.3057 42.2806 49.377C44.7702 53.4495 45.9067 58.7179 43.3422 62.992C41.2544 66.4718 38.9557 68.5069 36.1483 69.5685C33.4208 70.6 30.3754 70.6421 26.9947 70.5121C20.4785 70.2614 17.3898 65.2231 15.1416 60.9766C13.8734 58.5811 12.7554 55.8466 11.8491 52.9233C11.7464 53.0695 11.6441 53.2176 11.5422 53.3678C9.32231 56.6393 8.71758 60.731 8.57061 65.2409C8.52235 66.7216 8.52339 68.1912 8.52444 69.6762C8.52499 70.4611 8.52555 71.2503 8.51884 72.0478C8.49976 74.3128 8.42088 76.5892 8.09029 78.7381C6.9636 86.062 7.02653 94.9789 7.67345 102.419C8.3362 110.041 9.32082 118.103 12.1491 124.957C14.952 131.75 19.5312 137.281 27.4111 140.009C39.4766 144.186 52.8885 144.138 66.0718 144.091ZM14.1453 50.0621C15.0818 53.5625 16.3382 56.8249 17.793 59.5729C20.0774 63.8879 22.4529 67.3352 27.11 67.5143C30.4874 67.6442 32.9828 67.5583 35.0871 66.7625C37.1115 65.9969 38.9356 64.5056 40.7698 61.4486C42.5185 58.5339 41.9216 54.5415 39.721 50.9417C37.5196 47.3407 34.0463 44.7032 30.9096 44.3547C26.5672 43.8722 22.9672 44.3533 19.8677 45.7918C17.8098 46.7469 15.9163 48.1502 14.1453 50.0621ZM101.862 5.71413C101.877 5.71732 101.885 5.71864 101.885 5.71841C101.885 5.71823 101.879 5.71698 101.866 5.71483C101.865 5.7146 101.864 5.71437 101.862 5.71413ZM101.986 2.80142C102.021 2.79668 102.029 2.79784 101.994 2.80083C101.992 2.80099 101.989 2.80121 101.986 2.80142Z" fill="white"/>
</g>
<defs>
<filter id="filter0_d_79_35" x="0.210083" y="0.574707" width="114.714" height="154.529" filterUnits="userSpaceOnUse" color-interpolation-filters="sRGB">
<feFlood flood-opacity="0" result="BackgroundImageFix"/>
<feColorMatrix in="SourceAlpha" type="matrix" values="0 0 0 0 0 0 0 0 0 0 0 0 0 0 0 0 0 0 127 0" result="hardAlpha"/>
<feOffset dy="4"/>
<feGaussianBlur stdDeviation="2"/>
<feComposite in2="hardAlpha" operator="out"/>
<feColorMatrix type="matrix" values="0 0 0 0 0 0 0 0 0 0 0 0 0 0 0 0 0 0 0.25 0"/>
<feBlend mode="normal" in2="BackgroundImageFix" result="effect1_dropShadow_79_35"/>
<feBlend mode="normal" in="SourceGraphic" in2="effect1_dropShadow_79_35" result="shape"/>
</filter>
</defs>
</svg>
