<svg width="149" height="8" viewBox="0 0 149 8" fill="none" xmlns="http://www.w3.org/2000/svg">
<path fill-rule="evenodd" clip-rule="evenodd" d="M141.306 3.11932C140.79 3.15954 140.282 3.19919 139.942 3.19919C134.28 3.19919 128.605 3.39874 122.918 3.62623C117.042 3.86127 111.122 3.89656 105.23 3.93169C103.82 3.9401 102.411 3.9485 101.005 3.95962C93.7074 4.01735 86.4586 4.14833 79.2981 4.72696C71.1289 5.38709 62.6742 5.54387 54.5362 5.6333C50.9729 5.67246 47.4057 5.85223 43.8047 6.03372C43.5729 6.0454 43.341 6.05709 43.1089 6.06875C39.2827 6.26097 35.42 6.44479 31.5525 6.44479C31.165 6.44479 29.9934 6.49449 28.2895 6.56678C27.6207 6.59515 26.8699 6.627 26.0523 6.66069C23.1897 6.77865 19.5801 6.91548 16.032 6.98978C12.492 7.06392 8.97994 7.07664 6.32369 6.94226C5.00555 6.87557 3.83796 6.77008 2.96642 6.60229C2.54167 6.52051 2.09818 6.40791 1.72191 6.23393C1.47225 6.11849 0.637962 5.70391 0.515617 4.72514C0.412864 3.90311 0.995954 3.15342 1.81798 3.05067C2.33858 2.9856 2.83015 3.1956 3.14677 3.56715C3.23635 3.59258 3.36274 3.6235 3.53358 3.65639C4.1941 3.78356 5.19306 3.88122 6.47527 3.94609C9.01972 4.07482 12.4436 4.06427 15.9692 3.99044C19.4865 3.91678 23.0721 3.78095 25.9287 3.66323C26.6815 3.63221 27.389 3.60218 28.0335 3.57482C29.8021 3.49974 31.0967 3.44479 31.5525 3.44479C35.335 3.44479 39.1276 3.26498 42.9584 3.07253C43.1947 3.06066 43.4313 3.04873 43.668 3.0368C47.2557 2.85594 50.8785 2.67331 54.5032 2.63348C62.6379 2.54409 71.0009 2.38766 79.0565 1.73671C86.3327 1.14873 93.6737 1.01752 100.982 0.959712C102.401 0.948484 103.818 0.940018 105.234 0.931563C111.122 0.896392 116.978 0.861419 122.798 0.628623C128.489 0.400989 134.215 0.199187 139.942 0.199187C140.154 0.199187 140.497 0.172624 140.996 0.134039C141.131 0.123621 141.277 0.112325 141.435 0.10044C142.127 0.0483833 142.966 -0.00706212 143.801 -0.0078048C144.62 -0.00853352 145.521 0.0422216 146.313 0.238622C147.039 0.418658 148.076 0.819787 148.586 1.8398C148.957 2.58077 148.657 3.48177 147.916 3.85224C147.208 4.20618 146.354 3.94781 145.956 3.27789C145.911 3.25307 145.804 3.20321 145.591 3.15043C145.152 3.04152 144.536 2.99154 143.804 2.99219C143.086 2.99283 142.339 3.04088 141.66 3.09198C141.543 3.10081 141.424 3.11008 141.306 3.11932ZM2.98099 3.51093C2.93135 3.48798 2.94423 3.48729 2.99013 3.51498C2.98671 3.51352 2.98366 3.51217 2.98099 3.51093Z" fill="white"/>
</svg>
